<mxfile host="app.diagrams.net" modified="2024-03-27T07:00:14.377Z" agent="Mozilla/5.0 (X11; Linux x86_64) AppleWebKit/537.36 (KHTML, like Gecko) Chrome/120.0.0.0 Safari/537.36" etag="sGjBC3Sy-9RErO71fgCw" version="23.0.2" type="github">
  <diagram name="Page-1" id="2YBvvXClWsGukQMizWep">
    <mxGraphModel dx="754" dy="540" grid="1" gridSize="10" guides="1" tooltips="1" connect="1" arrows="1" fold="1" page="1" pageScale="1" pageWidth="850" pageHeight="1100" math="0" shadow="0">
      <root>
        <mxCell id="0" />
        <mxCell id="1" parent="0" />
        <mxCell id="aM9ryv3xv72pqoxQDRHE-1" value="HCopyClient.java" style="shape=umlLifeline;perimeter=lifelinePerimeter;whiteSpace=wrap;html=1;container=0;dropTarget=0;collapsible=0;recursiveResize=0;outlineConnect=0;portConstraint=eastwest;newEdgeStyle={&quot;edgeStyle&quot;:&quot;elbowEdgeStyle&quot;,&quot;elbow&quot;:&quot;vertical&quot;,&quot;curved&quot;:0,&quot;rounded&quot;:0};" parent="1" vertex="1">
          <mxGeometry x="40" y="40" width="100" height="550" as="geometry" />
        </mxCell>
        <mxCell id="aM9ryv3xv72pqoxQDRHE-2" value="" style="html=1;points=[];perimeter=orthogonalPerimeter;outlineConnect=0;targetShapes=umlLifeline;portConstraint=eastwest;newEdgeStyle={&quot;edgeStyle&quot;:&quot;elbowEdgeStyle&quot;,&quot;elbow&quot;:&quot;vertical&quot;,&quot;curved&quot;:0,&quot;rounded&quot;:0};" parent="aM9ryv3xv72pqoxQDRHE-1" vertex="1">
          <mxGeometry x="45" y="60" width="10" height="150" as="geometry" />
        </mxCell>
        <mxCell id="aM9ryv3xv72pqoxQDRHE-3" value="cmd call" style="html=1;verticalAlign=bottom;startArrow=oval;endArrow=block;startSize=8;edgeStyle=elbowEdgeStyle;elbow=vertical;curved=0;rounded=0;" parent="aM9ryv3xv72pqoxQDRHE-1" target="aM9ryv3xv72pqoxQDRHE-2" edge="1">
          <mxGeometry relative="1" as="geometry">
            <mxPoint x="-15" y="70" as="sourcePoint" />
          </mxGeometry>
        </mxCell>
        <mxCell id="aM9ryv3xv72pqoxQDRHE-5" value="FileSyncTask.java" style="shape=umlLifeline;perimeter=lifelinePerimeter;whiteSpace=wrap;html=1;container=0;dropTarget=0;collapsible=0;recursiveResize=0;outlineConnect=0;portConstraint=eastwest;newEdgeStyle={&quot;edgeStyle&quot;:&quot;elbowEdgeStyle&quot;,&quot;elbow&quot;:&quot;vertical&quot;,&quot;curved&quot;:0,&quot;rounded&quot;:0};" parent="1" vertex="1">
          <mxGeometry x="190" y="40" width="100" height="580" as="geometry" />
        </mxCell>
        <mxCell id="TuuB7IvEHJH3qWyG-rXk-39" value="" style="html=1;points=[[0,0,0,0,5],[0,1,0,0,-5],[1,0,0,0,5],[1,1,0,0,-5]];perimeter=orthogonalPerimeter;outlineConnect=0;targetShapes=umlLifeline;portConstraint=eastwest;newEdgeStyle={&quot;curved&quot;:0,&quot;rounded&quot;:0};" vertex="1" parent="aM9ryv3xv72pqoxQDRHE-5">
          <mxGeometry x="44" y="55" width="10" height="155" as="geometry" />
        </mxCell>
        <mxCell id="TuuB7IvEHJH3qWyG-rXk-42" value="" style="html=1;points=[[0,0,0,0,5],[0,1,0,0,-5],[1,0,0,0,5],[1,1,0,0,-5]];perimeter=orthogonalPerimeter;outlineConnect=0;targetShapes=umlLifeline;portConstraint=eastwest;newEdgeStyle={&quot;curved&quot;:0,&quot;rounded&quot;:0};" vertex="1" parent="aM9ryv3xv72pqoxQDRHE-5">
          <mxGeometry x="44" y="90" width="10" height="40" as="geometry" />
        </mxCell>
        <mxCell id="TuuB7IvEHJH3qWyG-rXk-43" value="创建 49112 的 Proxy" style="html=1;align=left;spacingLeft=2;endArrow=block;rounded=0;edgeStyle=orthogonalEdgeStyle;curved=0;rounded=0;" edge="1" target="TuuB7IvEHJH3qWyG-rXk-42" parent="aM9ryv3xv72pqoxQDRHE-5">
          <mxGeometry relative="1" as="geometry">
            <mxPoint x="49" y="70" as="sourcePoint" />
            <Array as="points">
              <mxPoint x="79" y="100" />
            </Array>
          </mxGeometry>
        </mxCell>
        <mxCell id="TuuB7IvEHJH3qWyG-rXk-44" value="" style="html=1;points=[[0,0,0,0,5],[0,1,0,0,-5],[1,0,0,0,5],[1,1,0,0,-5]];perimeter=orthogonalPerimeter;outlineConnect=0;targetShapes=umlLifeline;portConstraint=eastwest;newEdgeStyle={&quot;curved&quot;:0,&quot;rounded&quot;:0};" vertex="1" parent="aM9ryv3xv72pqoxQDRHE-5">
          <mxGeometry x="44" y="160" width="10" height="40" as="geometry" />
        </mxCell>
        <mxCell id="TuuB7IvEHJH3qWyG-rXk-45" value="创建 49111 的 Proxy" style="html=1;align=left;spacingLeft=2;endArrow=block;rounded=0;edgeStyle=orthogonalEdgeStyle;curved=0;rounded=0;" edge="1" target="TuuB7IvEHJH3qWyG-rXk-44" parent="aM9ryv3xv72pqoxQDRHE-5">
          <mxGeometry relative="1" as="geometry">
            <mxPoint x="49" y="140" as="sourcePoint" />
            <Array as="points">
              <mxPoint x="79" y="170" />
            </Array>
          </mxGeometry>
        </mxCell>
        <mxCell id="TuuB7IvEHJH3qWyG-rXk-4" value="DirSyncTask.java" style="shape=umlLifeline;perimeter=lifelinePerimeter;whiteSpace=wrap;html=1;container=0;dropTarget=0;collapsible=0;recursiveResize=0;outlineConnect=0;portConstraint=eastwest;newEdgeStyle={&quot;edgeStyle&quot;:&quot;elbowEdgeStyle&quot;,&quot;elbow&quot;:&quot;vertical&quot;,&quot;curved&quot;:0,&quot;rounded&quot;:0};" vertex="1" parent="1">
          <mxGeometry x="340" y="40" width="100" height="580" as="geometry" />
        </mxCell>
        <mxCell id="TuuB7IvEHJH3qWyG-rXk-5" value="" style="html=1;points=[];perimeter=orthogonalPerimeter;outlineConnect=0;targetShapes=umlLifeline;portConstraint=eastwest;newEdgeStyle={&quot;edgeStyle&quot;:&quot;elbowEdgeStyle&quot;,&quot;elbow&quot;:&quot;vertical&quot;,&quot;curved&quot;:0,&quot;rounded&quot;:0};" vertex="1" parent="TuuB7IvEHJH3qWyG-rXk-4">
          <mxGeometry x="45" y="80" width="10" height="170" as="geometry" />
        </mxCell>
        <mxCell id="TuuB7IvEHJH3qWyG-rXk-6" value="HCopyServer.java" style="shape=umlLifeline;perimeter=lifelinePerimeter;whiteSpace=wrap;html=1;container=0;dropTarget=0;collapsible=0;recursiveResize=0;outlineConnect=0;portConstraint=eastwest;newEdgeStyle={&quot;edgeStyle&quot;:&quot;elbowEdgeStyle&quot;,&quot;elbow&quot;:&quot;vertical&quot;,&quot;curved&quot;:0,&quot;rounded&quot;:0};" vertex="1" parent="1">
          <mxGeometry x="480" y="40" width="100" height="580" as="geometry" />
        </mxCell>
        <mxCell id="TuuB7IvEHJH3qWyG-rXk-16" value="" style="html=1;points=[[0,0,0,0,5],[0,1,0,0,-5],[1,0,0,0,5],[1,1,0,0,-5]];perimeter=orthogonalPerimeter;outlineConnect=0;targetShapes=umlLifeline;portConstraint=eastwest;newEdgeStyle={&quot;curved&quot;:0,&quot;rounded&quot;:0};" vertex="1" parent="TuuB7IvEHJH3qWyG-rXk-6">
          <mxGeometry x="45" y="80" width="10" height="40" as="geometry" />
        </mxCell>
        <mxCell id="TuuB7IvEHJH3qWyG-rXk-27" value="" style="html=1;points=[[0,0,0,0,5],[0,1,0,0,-5],[1,0,0,0,5],[1,1,0,0,-5]];perimeter=orthogonalPerimeter;outlineConnect=0;targetShapes=umlLifeline;portConstraint=eastwest;newEdgeStyle={&quot;curved&quot;:0,&quot;rounded&quot;:0};" vertex="1" parent="TuuB7IvEHJH3qWyG-rXk-6">
          <mxGeometry x="45" y="140" width="10" height="40" as="geometry" />
        </mxCell>
        <mxCell id="TuuB7IvEHJH3qWyG-rXk-8" value="FileRpcService.java&lt;br&gt;Hcopy 49112" style="shape=umlLifeline;perimeter=lifelinePerimeter;whiteSpace=wrap;html=1;container=0;dropTarget=0;collapsible=0;recursiveResize=0;outlineConnect=0;portConstraint=eastwest;newEdgeStyle={&quot;edgeStyle&quot;:&quot;elbowEdgeStyle&quot;,&quot;elbow&quot;:&quot;vertical&quot;,&quot;curved&quot;:0,&quot;rounded&quot;:0};" vertex="1" parent="1">
          <mxGeometry x="620" y="40" width="120" height="580" as="geometry" />
        </mxCell>
        <mxCell id="TuuB7IvEHJH3qWyG-rXk-29" value="" style="html=1;points=[[0,0,0,0,5],[0,1,0,0,-5],[1,0,0,0,5],[1,1,0,0,-5]];perimeter=orthogonalPerimeter;outlineConnect=0;targetShapes=umlLifeline;portConstraint=eastwest;newEdgeStyle={&quot;curved&quot;:0,&quot;rounded&quot;:0};" vertex="1" parent="TuuB7IvEHJH3qWyG-rXk-8">
          <mxGeometry x="55" y="80" width="10" height="40" as="geometry" />
        </mxCell>
        <mxCell id="TuuB7IvEHJH3qWyG-rXk-35" value="" style="html=1;points=[[0,0,0,0,5],[0,1,0,0,-5],[1,0,0,0,5],[1,1,0,0,-5]];perimeter=orthogonalPerimeter;outlineConnect=0;targetShapes=umlLifeline;portConstraint=eastwest;newEdgeStyle={&quot;curved&quot;:0,&quot;rounded&quot;:0};" vertex="1" parent="TuuB7IvEHJH3qWyG-rXk-8">
          <mxGeometry x="55" y="210" width="10" height="350" as="geometry" />
        </mxCell>
        <mxCell id="TuuB7IvEHJH3qWyG-rXk-36" value="监听 49112 并服务 RPC" style="html=1;align=left;spacingLeft=2;endArrow=block;rounded=0;edgeStyle=orthogonalEdgeStyle;curved=0;rounded=0;" edge="1" target="TuuB7IvEHJH3qWyG-rXk-35" parent="TuuB7IvEHJH3qWyG-rXk-8">
          <mxGeometry relative="1" as="geometry">
            <mxPoint x="60" y="190" as="sourcePoint" />
            <Array as="points">
              <mxPoint x="90" y="220" />
            </Array>
          </mxGeometry>
        </mxCell>
        <mxCell id="TuuB7IvEHJH3qWyG-rXk-10" value="FileWriteSerive.java&lt;br&gt;Hcopy 49111" style="shape=umlLifeline;perimeter=lifelinePerimeter;whiteSpace=wrap;html=1;container=0;dropTarget=0;collapsible=0;recursiveResize=0;outlineConnect=0;portConstraint=eastwest;newEdgeStyle={&quot;edgeStyle&quot;:&quot;elbowEdgeStyle&quot;,&quot;elbow&quot;:&quot;vertical&quot;,&quot;curved&quot;:0,&quot;rounded&quot;:0};" vertex="1" parent="1">
          <mxGeometry x="780" y="40" width="120" height="580" as="geometry" />
        </mxCell>
        <mxCell id="TuuB7IvEHJH3qWyG-rXk-32" value="" style="html=1;points=[[0,0,0,0,5],[0,1,0,0,-5],[1,0,0,0,5],[1,1,0,0,-5]];perimeter=orthogonalPerimeter;outlineConnect=0;targetShapes=umlLifeline;portConstraint=eastwest;newEdgeStyle={&quot;curved&quot;:0,&quot;rounded&quot;:0};" vertex="1" parent="TuuB7IvEHJH3qWyG-rXk-10">
          <mxGeometry x="55" y="140" width="10" height="40" as="geometry" />
        </mxCell>
        <mxCell id="TuuB7IvEHJH3qWyG-rXk-37" value="" style="html=1;points=[[0,0,0,0,5],[0,1,0,0,-5],[1,0,0,0,5],[1,1,0,0,-5]];perimeter=orthogonalPerimeter;outlineConnect=0;targetShapes=umlLifeline;portConstraint=eastwest;newEdgeStyle={&quot;curved&quot;:0,&quot;rounded&quot;:0};" vertex="1" parent="TuuB7IvEHJH3qWyG-rXk-10">
          <mxGeometry x="55" y="220" width="10" height="340" as="geometry" />
        </mxCell>
        <mxCell id="TuuB7IvEHJH3qWyG-rXk-38" value="监听 49111 并服务" style="html=1;align=left;spacingLeft=2;endArrow=block;rounded=0;edgeStyle=orthogonalEdgeStyle;curved=0;rounded=0;" edge="1" target="TuuB7IvEHJH3qWyG-rXk-37" parent="TuuB7IvEHJH3qWyG-rXk-10">
          <mxGeometry relative="1" as="geometry">
            <mxPoint x="60" y="200" as="sourcePoint" />
            <Array as="points">
              <mxPoint x="90" y="230" />
            </Array>
          </mxGeometry>
        </mxCell>
        <mxCell id="TuuB7IvEHJH3qWyG-rXk-19" value="cmd call" style="html=1;verticalAlign=bottom;startArrow=oval;startFill=1;endArrow=block;startSize=8;curved=0;rounded=0;" edge="1" parent="1" target="TuuB7IvEHJH3qWyG-rXk-6">
          <mxGeometry width="60" relative="1" as="geometry">
            <mxPoint x="460" y="110" as="sourcePoint" />
            <mxPoint x="525" y="110" as="targetPoint" />
          </mxGeometry>
        </mxCell>
        <mxCell id="TuuB7IvEHJH3qWyG-rXk-30" value="注册 RPC 49112" style="html=1;verticalAlign=bottom;endArrow=block;curved=0;rounded=0;entryX=0;entryY=0;entryDx=0;entryDy=5;exitX=1;exitY=0;exitDx=0;exitDy=5;exitPerimeter=0;" edge="1" target="TuuB7IvEHJH3qWyG-rXk-29" parent="1" source="TuuB7IvEHJH3qWyG-rXk-16">
          <mxGeometry relative="1" as="geometry">
            <mxPoint x="590" y="150" as="sourcePoint" />
          </mxGeometry>
        </mxCell>
        <mxCell id="TuuB7IvEHJH3qWyG-rXk-31" value="return" style="html=1;verticalAlign=bottom;endArrow=open;dashed=1;endSize=8;curved=0;rounded=0;exitX=0;exitY=1;exitDx=0;exitDy=-5;entryX=1;entryY=1;entryDx=0;entryDy=-5;entryPerimeter=0;" edge="1" source="TuuB7IvEHJH3qWyG-rXk-29" parent="1" target="TuuB7IvEHJH3qWyG-rXk-16">
          <mxGeometry relative="1" as="geometry">
            <mxPoint x="590" y="190" as="targetPoint" />
          </mxGeometry>
        </mxCell>
        <mxCell id="TuuB7IvEHJH3qWyG-rXk-33" value="注册文件传输用 49111" style="html=1;verticalAlign=bottom;endArrow=block;curved=0;rounded=0;entryX=0;entryY=0;entryDx=0;entryDy=5;exitX=1;exitY=0;exitDx=0;exitDy=5;exitPerimeter=0;" edge="1" target="TuuB7IvEHJH3qWyG-rXk-32" parent="1" source="TuuB7IvEHJH3qWyG-rXk-27">
          <mxGeometry relative="1" as="geometry">
            <mxPoint x="605" y="185" as="sourcePoint" />
          </mxGeometry>
        </mxCell>
        <mxCell id="TuuB7IvEHJH3qWyG-rXk-34" value="return" style="html=1;verticalAlign=bottom;endArrow=open;dashed=1;endSize=8;curved=0;rounded=0;exitX=0;exitY=1;exitDx=0;exitDy=-5;entryX=1;entryY=1;entryDx=0;entryDy=-5;entryPerimeter=0;" edge="1" source="TuuB7IvEHJH3qWyG-rXk-32" parent="1" target="TuuB7IvEHJH3qWyG-rXk-27">
          <mxGeometry relative="1" as="geometry">
            <mxPoint x="605" y="255" as="targetPoint" />
          </mxGeometry>
        </mxCell>
        <mxCell id="TuuB7IvEHJH3qWyG-rXk-40" value="创建 FileSyncTask" style="html=1;verticalAlign=bottom;endArrow=block;curved=0;rounded=0;entryX=0;entryY=0;entryDx=0;entryDy=5;" edge="1" target="TuuB7IvEHJH3qWyG-rXk-39" parent="1" source="aM9ryv3xv72pqoxQDRHE-2">
          <mxGeometry relative="1" as="geometry">
            <mxPoint x="164" y="100" as="sourcePoint" />
          </mxGeometry>
        </mxCell>
        <mxCell id="TuuB7IvEHJH3qWyG-rXk-41" value="return" style="html=1;verticalAlign=bottom;endArrow=open;dashed=1;endSize=8;curved=0;rounded=0;exitX=0;exitY=1;exitDx=0;exitDy=-5;" edge="1" source="TuuB7IvEHJH3qWyG-rXk-39" parent="1" target="aM9ryv3xv72pqoxQDRHE-2">
          <mxGeometry relative="1" as="geometry">
            <mxPoint x="164" y="170" as="targetPoint" />
          </mxGeometry>
        </mxCell>
      </root>
    </mxGraphModel>
  </diagram>
</mxfile>
